<!--?xml version="1.0" encoding="UTF-8" standalone="no"?-->

<!-- Generated by graphviz version 2.40.1 (20161225.0304)
 -->
<!-- Title: %0 Pages: 1 -->
<svg width="466pt" height="158pt" viewBox="0.00 0.00 465.55 157.80" xmlns="http://www.w3.org/2000/svg" xmlns:xlink="http://www.w3.org/1999/xlink">
<g id="graph0" class="graph" transform="scale(1 1) rotate(0) translate(4 153.8)">
<title>%0</title>
<polygon fill="#ffffff" stroke="transparent" points="-4,4 -4,-153.8 461.5524,-153.8 461.5524,4 -4,4"></polygon>
<!-- Ecosystem Fund \n multisig -->
<g id="node1" class="node">
<title>Ecosystem Fund \n multisig</title>
<polygon fill="none" stroke="#c0c0c0" points="146.1678,-149.6019 4.2098,-149.6019 4.2098,-108.3981 146.1678,-108.3981 146.1678,-149.6019"></polygon>
<text text-anchor="middle" x="75.1888" y="-133.2" font-family="Courier,monospace" font-size="14.00" fill="#000000">Ecosystem Fund </text>
<text text-anchor="middle" x="75.1888" y="-116.4" font-family="Courier,monospace" font-size="14.00" fill="#000000"> multisig</text>
</g>
<!-- Budget -->
<g id="node3" class="node">
<title>Budget</title>
<polygon fill="none" stroke="#ff0000" points="252.9662,-91 186.1806,-91 186.1806,-55 252.9662,-55 252.9662,-91"></polygon>
<text text-anchor="middle" x="219.5734" y="-68.8" font-family="Courier,monospace" font-size="14.00" fill="#000000">Budget</text>
</g>
<!-- Ecosystem Fund \n multisig&#45;&gt;Budget -->
<g id="edge1" class="edge">
<title>Ecosystem Fund \n multisig-&gt;Budget</title>
<path fill="none" stroke="#c0c0c0" stroke-dasharray="5,2" d="M128.5421,-108.3068C144.3574,-102.1728 161.4696,-95.5357 176.543,-89.6895"></path>
<polygon fill="#c0c0c0" stroke="#c0c0c0" points="178.0622,-92.8544 186.1198,-85.9751 175.5309,-86.328 178.0622,-92.8544"></polygon>
</g>
<!-- Rewards Contract -->
<g id="node2" class="node">
<title>Rewards Contract</title>
<polygon fill="none" stroke="#c0c0c0" points="150.5669,-36 -.1893,-36 -.1893,0 150.5669,0 150.5669,-36"></polygon>
<text text-anchor="middle" x="75.1888" y="-13.8" font-family="Courier,monospace" font-size="14.00" fill="#000000">Rewards Contract</text>
</g>
<!-- Rewards Contract&#45;&gt;Budget -->
<g id="edge2" class="edge">
<title>Rewards Contract-&gt;Budget</title>
<path fill="none" stroke="#c0c0c0" stroke-dasharray="5,2" d="M122.4657,-36.0091C139.9283,-42.661 159.6078,-50.1575 176.6622,-56.654"></path>
<polygon fill="#c0c0c0" stroke="#c0c0c0" points="175.7728,-60.0605 186.3637,-60.3495 178.2647,-53.519 175.7728,-60.0605"></polygon>
</g>
<!-- Ceiling -->
<g id="node4" class="node">
<title>Ceiling</title>
<polygon fill="none" stroke="#ff0000" points="363.4548,-91 288.8738,-91 288.8738,-55 363.4548,-55 363.4548,-91"></polygon>
<text text-anchor="middle" x="326.1643" y="-68.8" font-family="Courier,monospace" font-size="14.00" fill="#000000">Ceiling</text>
</g>
<!-- Budget&#45;&gt;Ceiling -->
<g id="edge3" class="edge">
<title>Budget-&gt;Ceiling</title>
<path fill="none" stroke="#0000ff" stroke-dasharray="5,2" d="M253.007,-73C261.1691,-73 270.0566,-73 278.734,-73"></path>
<polygon fill="#0000ff" stroke="#0000ff" points="278.7682,-76.5001 288.7682,-73 278.7681,-69.5001 278.7682,-76.5001"></polygon>
</g>
<!-- Token -->
<g id="node5" class="node">
<title>Token</title>
<polygon fill="none" stroke="#ff0000" points="457.5489,-91 399.5629,-91 399.5629,-55 457.5489,-55 457.5489,-91"></polygon>
<text text-anchor="middle" x="428.5559" y="-68.8" font-family="Courier,monospace" font-size="14.00" fill="#000000">Token</text>
</g>
<!-- Ceiling&#45;&gt;Token -->
<g id="edge4" class="edge">
<title>Ceiling-&gt;Token</title>
<path fill="none" stroke="#0000ff" stroke-dasharray="5,2" d="M363.7097,-73C371.9767,-73 380.756,-73 389.0961,-73"></path>
<polygon fill="#0000ff" stroke="#0000ff" points="389.3538,-76.5001 399.3537,-73 389.3537,-69.5001 389.3538,-76.5001"></polygon>
</g>
</g>
</svg>

